<?xml version="1.0" encoding="UTF-8"?>
<svg width="117px" height="117px" viewBox="0 0 117 117" version="1.1" xmlns="http://www.w3.org/2000/svg" xmlns:xlink="http://www.w3.org/1999/xlink">
    <!-- Generator: Sketch 50.1 (55044) - http://www.bohemiancoding.com/sketch -->
    <title>logo</title>
    <desc>Created with Sketch.</desc>
    <defs>
        <polygon id="path-1" points="0 0.14841132 30.0137063 0.14841132 30.0137063 67.3175106 0 67.3175106"></polygon>
    </defs>
    <g id="Page-1" stroke="none" stroke-width="1" fill="none" fill-rule="evenodd">
        <g id="Artboard" transform="translate(0.000000, -2.000000)">
            <g id="logo">
                <g id="Group-2-Copy" transform="translate(143.359073, 0.909091)" fill="#232527">
                    <path d="M2.01427353,47.0130057 C2.01427353,44.996026 1.95620461,42.9790764 1.84006504,40.9620966 C1.72392546,38.9451169 1.58843132,36.9281673 1.43357855,34.9111876 L9.67944728,34.9111876 L9.67944728,43.1730057 L9.91172527,43.1730057 C11.7699585,39.9923838 14.3443472,37.5875593 17.6349685,35.9584603 C20.9255899,34.3293612 24.1968055,33.5148239 27.4487137,33.5148239 C28.919815,33.5148239 30.4876758,33.6699739 32.152343,33.9802785 C33.8170103,34.290583 35.4235837,34.8530017 36.9721114,35.6675512 C38.5206391,36.4821007 39.972362,37.6263317 41.3273237,39.1002785 C42.6822855,40.5742252 43.8243075,42.4748123 44.7534241,44.8020966 C46.3019518,41.3111701 48.7602026,38.5572582 52.1282504,36.5402785 C55.4962981,34.5232987 58.9997894,33.5148239 62.6388295,33.5148239 C69.6072041,33.5148239 74.7559815,35.3572297 78.085316,39.0420966 C81.4146505,42.7269636 83.0792928,47.9826686 83.0792928,54.8093694 L83.0792928,89.3693694 L75.4141191,89.3693694 L75.4141191,57.6020966 C75.4141191,52.0941903 74.4463038,47.8663538 72.5106442,44.9184603 C70.5749846,41.9705668 66.9747117,40.4966421 61.7097175,40.4966421 C58.8449413,40.4966421 56.4447594,41.0590607 54.5090998,42.1839148 C52.5734402,43.3087689 51.0055794,44.8020873 49.8054704,46.6639148 C48.6053615,48.5257423 47.7343277,50.6396606 47.192343,53.005733 C46.6503583,55.3718054 46.3793701,57.8348111 46.3793701,60.3948239 L46.3793701,89.3693694 L38.7141963,89.3693694 L38.7141963,57.6020966 C38.7141963,52.0941903 37.746381,47.8663538 35.8107214,44.9184603 C33.8750618,41.9705668 30.2747889,40.4966421 25.0097948,40.4966421 C24.5452365,40.4966421 23.4806396,40.6517921 21.8159724,40.9620966 C20.1513051,41.2724012 18.4285939,42.125726 16.647787,43.5220966 C14.8669802,44.9184673 13.2604068,47.0129918 11.8280187,49.805733 C10.3956306,52.5984742 9.67944728,56.4772233 9.67944728,61.4420966 L9.67944728,89.3693694 L2.01427353,89.3693694 L2.01427353,47.0130057 Z M126.337463,62.2566421 C124.401803,62.2566421 121.982265,62.3536108 119.078776,62.5475512 C116.175286,62.7414916 113.387978,63.2069414 110.716768,63.9439148 C108.045558,64.6808882 105.761513,65.8251192 103.864567,67.3766421 C101.967621,68.928165 101.019162,71.061477 101.019162,73.7766421 C101.019162,75.5608934 101.386931,77.0929993 102.122482,78.3730057 C102.858033,79.6530121 103.845204,80.7002744 105.084027,81.5148239 C106.322849,82.3293734 107.697146,82.9111858 109.206961,83.2602785 C110.716775,83.6093711 112.245924,83.7839148 113.794451,83.7839148 C116.581801,83.7839148 119.001339,83.3184649 121.053138,82.3875512 C123.104938,81.4566374 124.827649,80.196044 126.221324,78.605733 C127.614999,77.015422 128.640883,75.1536225 129.299007,73.0202785 C129.957131,70.8869345 130.286189,68.6178662 130.286189,66.2130057 L130.286189,62.2566421 L126.337463,62.2566421 Z M130.286189,55.9730057 L130.286189,54.5766421 C130.286189,45.1899285 125.640675,40.4966421 116.349509,40.4966421 C110.000546,40.4966421 104.464642,42.6299541 99.7416327,46.8966421 L95.0960729,41.4275512 C100.206214,36.1523733 107.871311,33.5148239 118.091594,33.5148239 C120.724091,33.5148239 123.259767,33.9026988 125.698698,34.6784603 C128.137629,35.4542217 130.247467,36.6372402 132.028274,38.2275512 C133.80908,39.8178622 135.241447,41.815418 136.325416,44.2202785 C137.409386,46.625139 137.951362,49.4954133 137.951362,52.8311876 L137.951362,77.1511876 C137.951362,79.2457435 138.048144,81.4372367 138.24171,83.725733 C138.435276,86.0142293 138.648195,87.8954226 138.880474,89.3693694 L131.447579,89.3693694 C131.215299,88.0505749 131.041093,86.6154377 130.924953,85.0639148 C130.808814,83.5123919 130.750745,81.9996798 130.750745,80.525733 L130.518467,80.525733 C128.273102,84.1718118 125.621288,86.7899675 122.562945,88.3802785 C119.504603,89.9705894 115.768836,90.765733 111.355532,90.765733 C108.955314,90.765733 106.632558,90.4360393 104.387193,89.7766421 C102.141827,89.1172449 100.148128,88.1087701 98.4060342,86.7511876 C96.6639406,85.393605 95.2702866,83.7257429 94.2250304,81.7475512 C93.1797742,79.7693595 92.6571539,77.4615038 92.6571539,74.8239148 C92.6571539,70.4020745 93.799176,66.9305941 96.0832543,64.4093694 C98.3673327,61.8881446 101.232066,60.0069513 104.67754,58.765733 C108.123014,57.5245147 111.800712,56.7487649 115.710745,56.4384603 C119.620777,56.1281557 123.201694,55.9730057 126.453602,55.9730057 L130.286189,55.9730057 Z M157.59337,34.9111876 C157.748223,36.3851343 157.845004,37.8396652 157.883718,39.2748239 C157.922431,40.7099826 157.941787,42.1645135 157.941787,43.6384603 L158.174065,43.6384603 C159.025755,42.1645135 160.109708,40.8069513 161.425957,39.565733 C162.742206,38.3245147 164.213285,37.2578587 165.839239,36.365733 C167.465193,35.4736073 169.187904,34.7754325 171.007424,34.2711876 C172.826944,33.7669426 174.627081,33.5148239 176.407888,33.5148239 C183.376262,33.5148239 188.525039,35.3572297 191.854374,39.0420966 C195.183709,42.7269636 196.848351,47.9826686 196.848351,54.8093694 L196.848351,89.3693694 L189.183177,89.3693694 L189.183177,59.2311876 C189.183177,53.1802482 188.137937,48.545143 186.047424,45.325733 C183.956912,42.106323 180.085651,40.4966421 174.433525,40.4966421 C174.046393,40.4966421 172.96244,40.6517921 171.181633,40.9620966 C169.400826,41.2724012 167.523264,42.125726 165.548891,43.5220966 C163.574519,44.9184673 161.813095,47.0129918 160.264567,49.805733 C158.716039,52.5984742 157.941787,56.4772233 157.941787,61.4420966 L157.941787,89.3693694 L150.276613,89.3693694 L150.276613,46.8966421 C150.276613,45.4226953 150.218544,43.5608958 150.102405,41.3111876 C149.986265,39.0614793 149.850771,36.9281673 149.695918,34.9111876 L157.59337,34.9111876 Z M214.51234,62.1402785 C214.51234,65.1657481 214.996247,67.997235 215.964077,70.6348239 C216.931907,73.2724129 218.306205,75.5608748 220.087012,77.5002785 C221.867818,79.4396821 224.016368,80.971788 226.532726,82.0966421 C229.049083,83.2214962 231.89446,83.7839148 235.068942,83.7839148 C238.165997,83.7839148 241.050087,83.2214962 243.721297,82.0966421 C246.392508,80.971788 248.695908,79.4396821 250.631568,77.5002785 C252.567227,75.5608748 254.077019,73.2724129 255.160988,70.6348239 C256.244958,67.997235 256.786934,65.1657481 256.786934,62.1402785 C256.786934,59.1148088 256.244958,56.283322 255.160988,53.645733 C254.077019,51.0081441 252.567227,48.7196821 250.631568,46.7802785 C248.695908,44.8408748 246.392508,43.3087689 243.721297,42.1839148 C241.050087,41.0590607 238.165997,40.4966421 235.068942,40.4966421 C231.89446,40.4966421 229.049083,41.0590607 226.532726,42.1839148 C224.016368,43.3087689 221.867818,44.8408748 220.087012,46.7802785 C218.306205,48.7196821 216.931907,51.0081441 215.964077,53.645733 C214.996247,56.283322 214.51234,59.1148088 214.51234,62.1402785 Z M264.100088,89.3693694 L256.434915,89.3693694 L256.434915,80.2930057 L256.202637,80.2930057 C254.963814,82.1548332 253.492735,83.7451204 251.789355,85.0639148 C250.085974,86.3827093 248.305194,87.468759 246.446961,88.3220966 C244.588728,89.1754342 242.672453,89.7960341 240.698081,90.1839148 C238.723708,90.5717956 236.846146,90.765733 235.065339,90.765733 C230.806888,90.765733 226.916271,90.0481644 223.39337,88.6130057 C219.87047,87.177847 216.83153,85.1802913 214.276459,82.6202785 C211.721388,80.0602657 209.727689,77.0348414 208.295301,73.5439148 C206.862913,70.0529883 206.146729,66.2518142 206.146729,62.1402785 C206.146729,58.0287428 206.862913,54.2275686 208.295301,50.7366421 C209.727689,47.2457156 211.721388,44.2202913 214.276459,41.6602785 C216.83153,39.1002657 219.87047,37.1027099 223.39337,35.6675512 C226.916271,34.2323925 230.806888,33.5148239 235.065339,33.5148239 C236.846146,33.5148239 238.723708,33.7087614 240.698081,34.0966421 C242.672453,34.4845228 244.588728,35.1051227 246.446961,35.9584603 C248.305194,36.8117979 250.085974,37.8978476 251.789355,39.2166421 C253.492735,40.5354366 254.963814,42.1257237 256.202637,43.9875512 L256.434915,43.9875512 L256.434915,1.39846028 L264.100088,1.39846028 L264.100088,89.3693694 Z M300.364457,79.9439148 L316.972333,34.9111876 L326.263453,34.9111876 L299.086928,103.565733 C297.460974,107.754845 295.389849,111.090569 292.873491,113.573006 C290.357134,116.055442 286.737505,117.296642 282.014495,117.296642 C280.853099,117.296642 279.672365,117.257855 278.472256,117.180278 C277.272147,117.102702 276.091412,116.869977 274.930016,116.482097 L275.742989,109.034824 C277.368944,109.888162 279.304574,110.314824 281.549939,110.314824 C284.259863,110.314824 286.389056,109.461499 287.937584,107.754824 C289.486112,106.048149 290.841053,103.643324 292.002449,100.540278 L295.951175,90.0675512 L273.652488,34.9111876 L283.292024,34.9111876 L300.364457,79.9439148 Z" id="mandy"></path>
                </g>
                <g id="Page-1" transform="translate(0.000000, 3.109075)">
                    <g id="Group-3" transform="translate(0.000000, 22.410723)">
                        <mask id="mask-2" fill="white">
                            <use xlink:href="#path-1"></use>
                        </mask>
                        <g id="Clip-2"></g>
                        <path d="M21.711713,55.6215377 C23.896682,59.9343405 26.6979102,63.8776499 30.0137063,67.3175106 L21.0804503,67.3175106 C19.6389931,67.3175106 18.3620198,66.5913612 17.6018373,65.4845555 L0.511067152,35.7604304 C0.500509061,35.7509419 0.500509061,35.7420116 0.49050666,35.7319649 C0.176542388,35.1364219 -0.000166706693,34.4476684 -0.000166706693,33.7326819 C-0.000166706693,33.1466274 0.34380477,32.059915 0.34380477,32.0509846 C0.390482644,31.9298667 17.6574062,1.88703961 17.6574062,1.88703961 C17.6674086,1.86806261 17.6762996,1.86806261 17.6762996,1.85913225 C18.4442618,0.818187869 19.685671,0.14841132 21.072115,0.14841132 L30.0137063,0.14841132 C26.6979102,3.58938834 23.896682,7.52934889 21.711713,11.8421517 C18.3798019,18.4132178 16.5004618,25.8505282 16.5004618,33.7326819 C16.5004618,41.6153937 18.3798019,49.0510297 21.711713,55.6215377" id="Fill-1" fill="#34BBA0" mask="url(#mask-2)"></path>
                    </g>
                    <path d="M43.9327705,22.5622603 L40.0390578,29.3124916 C39.2722071,30.3696222 38.0241296,31.0639573 36.6265718,31.0639573 L27.0481609,31.0639573 C28.5518553,28.7839263 30.2667115,26.6400831 32.1743918,24.6603353 L34.18932,22.5622603 L43.9327705,22.5622603 Z" id="Fill-4" fill="#232527"></path>
                    <path d="M92.1789655,58.6391043 C92.1789655,58.6391043 88.088539,65.5260816 87.9096071,65.7219913 C87.1427564,66.5982823 86.0158191,67.1408013 84.7527381,67.1408013 L70.2436989,67.1408013 L58.0952265,88.3001587 C57.3144835,89.1731008 56.1864348,89.7334805 54.9244652,89.7334805 L34.1894867,89.7334805 L32.1745585,87.6337311 C30.2807704,85.6578902 28.552022,83.5101401 27.047772,81.2155973 L52.3955246,81.2155973 C52.3955246,81.2155973 64.3945167,60.3448019 64.4084089,60.3308482 C65.1163567,59.3942773 66.2005059,58.7602222 67.4480276,58.6391043 L92.1789655,58.6391043 Z" id="Fill-6" fill="#232527"></path>
                    <path d="M104.477085,82.8991365 C107.096603,78.8352673 109.081524,74.4219979 110.382392,69.8161679 L114.864023,77.5755292 C115.589197,78.8291276 115.60309,80.3037523 115.034064,81.516606 L98.0144222,111.285383 C98.0116438,111.299895 98.0027527,111.303244 97.9994186,111.314965 C97.6443333,111.887624 97.1419905,112.384933 96.5257314,112.745496 C96.0194988,113.040197 94.913122,113.288015 94.9036753,113.291922 C94.7780896,113.311457 60.2420197,113.387923 60.2420197,113.387923 C60.2209035,113.390714 60.2159023,113.381783 60.2070113,113.387923 C58.9261482,113.243921 57.7253043,112.503818 57.0295817,111.294871 L52.5418375,103.528254 C57.1673926,104.681386 61.9685453,105.138509 66.7785891,104.870598 C74.1109052,104.465941 81.4554464,102.365634 88.2448543,98.4106032 C95.0309281,94.4527819 100.492795,89.0906625 104.477085,82.8991365" id="Fill-8" fill="#34BBA0"></path>
                    <path d="M61.3580099,101.84371 C58.620686,101.679057 55.9133693,101.254307 53.2671784,100.590112 L50.4420556,99.8980095 L45.5564381,91.4381735 L53.3288598,91.4236617 C54.6358403,91.5587333 55.8550219,92.2988364 56.5479661,93.5239693 L61.3580099,101.84371 Z" id="Fill-10" fill="#232527"></path>
                    <path d="M108.280387,66.1751509 L107.484085,68.9993754 C106.747797,71.642202 105.755336,74.1934925 104.553937,76.6549213 L91.832549,54.6527617 C91.832549,54.6527617 67.8234511,54.6829016 67.8062248,54.6829016 C66.6348324,54.5467138 65.5512389,53.9266123 64.8316217,52.9007379 L52.4130844,31.4115155 C52.4130844,31.4115155 60.3950009,31.5164471 60.6506178,31.5627733 C61.7925586,31.7888229 62.831697,32.4993442 63.4629597,33.6005685 L70.7397069,46.1951583 L95.0510996,46.1348784 C96.2085997,46.3765562 97.2449597,47.0870774 97.8756667,48.1749062 L108.280387,66.1751509 Z" id="Fill-12" fill="#232527"></path>
                    <path d="M67.3476702,8.55081394 C62.5381821,8.30132217 57.7364737,8.77630538 53.1186983,9.94618175 L57.5725454,2.17063416 C58.291607,0.914244989 59.554688,0.164095254 60.8883415,0.0530239768 L95.0659921,0.00279073562 C95.0776615,0 95.0859969,0.00446517699 95.0976663,0 C95.7678272,0.0240003263 96.4491019,0.212654054 97.0686951,0.569310066 C97.5738164,0.861221012 98.3401115,1.70234873 98.3456684,1.7079302 C98.4284661,1.80839668 115.739289,31.8283397 115.739289,31.8283397 C115.750403,31.8434097 115.74429,31.8523401 115.753181,31.8556889 C116.267749,33.0462168 116.226073,34.4577708 115.536463,35.6661594 L111.075947,43.4489629 C109.760076,38.8492724 107.757373,34.4415846 105.126185,30.3888783 C101.117445,24.2107478 95.6383517,18.8664891 88.83783,14.9349007 C82.0339742,11.0021961 74.6805419,8.92756325 67.3476702,8.55081394" id="Fill-14" fill="#34BBA0"></path>
                    <path d="M108.988001,47.0872449 L104.130724,55.5582438 L100.252015,48.8080125 C99.7118853,47.6007402 99.7407811,46.180814 100.448729,44.9573555 L105.213762,36.6214282 C106.432943,39.067787 107.425404,41.6347056 108.192255,44.2775323 L108.988001,47.0872449 Z" id="Fill-16" fill="#232527"></path>
                    <path d="M61.3281694,54.5464347 C61.7927254,55.6337053 61.7927254,56.8873037 61.2664879,58.0359705 L48.9246357,79.5692865 C48.9246357,79.5692865 45.0309231,72.5623075 44.9392344,72.3223043 C44.5791479,71.2194056 44.6697252,69.9496209 45.3009879,68.8634666 L52.5305015,56.2381786 L40.3525776,35.0955656 C39.9774875,33.9787132 40.0680648,32.7251147 40.6854353,31.6384023 L51.0268071,13.5912732 L53.855264,12.8824263 C56.5008992,12.202045 59.2087716,11.7784113 61.9449841,11.6137579 L49.3002815,33.6616856 C49.3002815,33.6616856 61.3142771,54.532481 61.3281694,54.5464347" id="Fill-18" fill="#232527"></path>
                </g>
            </g>
        </g>
    </g>
</svg>